<?xml version="1.0" encoding="utf-8"?>
<!-- Generator: Adobe Illustrator 25.3.1, SVG Export Plug-In . SVG Version: 6.00 Build 0)  -->
<svg version="1.1" id="Layer_1" xmlns="http://www.w3.org/2000/svg" xmlns:xlink="http://www.w3.org/1999/xlink" x="0px" y="0px"
	 viewBox="0 0 512 512" style="enable-background:new 0 0 512 512;" xml:space="preserve">
<style type="text/css">
	.st0{fill:#F8CFAC;}
	.st1{fill:#FEE3CB;}
	.st2{fill:#FEFEFE;}
</style>
<g>
	<path class="st0" d="M217.4,447.2c-16.9-0.9-32.4-6-46.7-15c-22.8-14.4-37.7-34.7-44.9-60.6c-2.1-7.5-3.4-15.4-3.3-23.1
		c0.3-25-4.8-48.7-16-70.9c-5.9-11.6-12.7-22.8-19.2-34.1C80.6,231.7,73.7,220,67,208.3c-1.3-2.2-2-4.8-2.9-7.1c0-3,0-6,0-9
		c1.7-3.9,2.5-8.3,6-11.3c2.6,4.5,5.2,9,7.9,13.5c10.7,18.2,21.1,36.6,32.2,54.6c16.5,26.9,25.4,55.9,25.1,87.6
		c-0.1,6.4,0.9,12.6,2.3,18.8c6.3,27.3,21,49,44.7,64c23.8,15.1,50.1,19.2,77.6,14.1c23.2-4.3,43.5-14.5,59.8-32.3
		c12.6-13.7,25.8-26.9,38.8-40.4s26.2-27,39.1-40.6c10.3-10.9,20.9-21.7,31.6-32.3c5.6-5.6,10.3-12.1,16.6-17.1
		c3.5,8.6,1.2,16.2-4.6,22.8c-6,6.7-12.4,13-18.6,19.5c-13.2,13.7-26.4,27.5-39.6,41.2c-10.4,10.9-20.8,21.8-31.2,32.7
		c-9.1,9.6-18,19.4-27.3,28.6c-17.6,17.5-38.8,27.9-63.5,31.1c-2.5,0.3-4.9,0.7-7.4,0.7C241.4,447.2,229.4,447.2,217.4,447.2z"/>
	<path class="st1" d="M217.4,447.2c12,0,24,0,36,0c0,0.2,0,0.5,0,0.7c-12,0-23.9,0-35.9,0C217.5,447.7,217.5,447.5,217.4,447.2z"/>
	<path class="st1" d="M445.7,270.6c-6.3,4.9-11,11.4-16.6,17.1c-10.6,10.7-21.2,21.4-31.6,32.3c-12.9,13.7-26,27.1-39.1,40.6
		c-12.9,13.4-26.1,26.7-38.8,40.4c-16.4,17.7-36.6,28-59.8,32.3c-27.5,5.1-53.8,1-77.6-14.1c-23.6-15-38.4-36.7-44.7-64
		c-1.4-6.2-2.4-12.4-2.3-18.8c0.4-31.7-8.6-60.7-25.1-87.6c-11-18-21.5-36.4-32.2-54.6c-2.6-4.5-5.2-9-7.9-13.5
		c3.8-5.9,9.6-8.2,16.2-8.9c12.1-1.2,20,5,25.7,15c14.5,25.2,29,50.4,43.5,75.6c0.6,1.1,1.5,2,2.2,2.9l0,0c0,0.6,0.2,1.2,0.8,1.5
		c1.3,2.9,3.5,2.7,5.8,1.5c3.8-1.9,6.1-6.9,5.1-11.1c-2.4-9.5-4.9-19-7.5-28.4c-8.8-33.1-17.8-66.1-26.5-99.2
		c-3.4-12.9,2.6-25.4,14.5-31.5c1.2-0.6,3.1-0.7,3.3-2.7c14.1,2.5,20.8,11.7,24.2,25c8.5,32.9,17.6,65.7,26.4,98.5
		c2.4,8.9,4.7,17.7,7.1,26.6c0.3,1.1,0.6,2.1,1.5,3.1c0-1.1,0-2.2,0-3.4c0-35,0-70.1,0-105.1c0-7.3-0.5-14.6-0.6-21.9
		c-0.1-9.8,0.8-19.6,0.8-29.5c0-9.8,10.9-21.3,21.3-23.3c15.6-3.1,29.8,6.2,33.6,21.6c0.4,1.6,0.4,3.2,0.4,4.8
		c0,52.4,0,104.8,0,157.1c0,1.4,0,2.7,0,4.1c0.2,0,0.4,0.1,0.6,0.1c1.8-6.1,3.6-12.1,5.3-18.2c6.8-23.7,13.5-47.5,20.3-71.2
		c5.2-18.3,10.6-36.5,15.7-54.7c3-10.6,9.8-17.6,20.3-20.3c11.2-2.8,20.9,0.4,28.3,9.5c-1.9,1.4-1.4,3.6-1.9,5.5
		c-7.8,29.2-15.6,58.5-23.3,87.7c-5.8,21.9-11.8,43.8-17.3,65.9c-1.9,7.6-5,15.1-4.7,23.2c0.3,9.6,0.1,19.2,0.1,28.8
		c0,1.6,0.1,3.2-2.2,3.7c-15.4,3.4-29.4,9.8-41.6,19.9c-12.5,10.3-22.3,22.7-28.7,37.6c-5.2,12-7.6,24.6-8.2,37.6
		c-0.2,3.7,2.6,7.2,5.8,7.4c4.3,0.2,6.8-2.2,6.7-6.9c0-4.9,0.7-9.6,1.5-14.4c2.7-16,9.8-30,20.4-42c11.4-12.9,25.6-21.7,42.3-25.9
		c6-1.5,12-3.5,18.8-2.4c5.1,0.9,10.5-1.3,14.3-5.7c6.9-5.3,11.7-12.4,17.5-18.7c6.3-6.9,12.3-14,18.3-21.1
		c8.6-10.2,19.8-16.4,32.4-20c7.6-2.2,15.4-3.4,23.1-1.3C438.4,259.1,443.6,263.3,445.7,270.6z"/>
	<path class="st0" d="M340.2,318.4c-3.7,4.4-9.2,6.6-14.3,5.7c-6.8-1.1-12.7,0.9-18.8,2.4c-16.7,4.2-30.9,13-42.3,25.9
		c-10.6,12.1-17.7,26-20.4,42c-0.8,4.8-1.6,9.5-1.5,14.4c0,4.8-2.4,7.2-6.7,6.9c-3.3-0.2-6-3.7-5.8-7.4c0.7-13,3.1-25.6,8.2-37.6
		c6.4-14.9,16.3-27.2,28.7-37.6c12.2-10.1,26.1-16.6,41.6-19.9c2.3-0.5,2.2-2,2.2-3.7c0-9.6,0.3-19.2-0.1-28.8
		c-0.3-8.2,2.8-15.6,4.7-23.2c5.5-22,11.5-43.9,17.3-65.9c7.7-29.3,15.5-58.5,23.3-87.7c0.5-1.8,0-4.1,1.9-5.5
		c6.5,8,7.4,17.1,4.9,26.8c-8.3,31.3-16.7,62.6-25.1,93.9c-4.8,17.7-9.5,35.5-14.4,53.2c-0.4,1.5-0.5,2.9-0.5,4.4
		c0,9.1,0.4,18.2-0.1,27.3C322.4,313.6,329.9,321.6,340.2,318.4z"/>
	<path class="st0" d="M153.1,95.6c-0.2,2-2,2-3.3,2.7c-11.9,6.1-17.9,18.6-14.5,31.5c8.7,33.1,17.7,66.1,26.5,99.2
		c2.5,9.5,5,18.9,7.5,28.4c1.1,4.1-1.3,9.2-5.1,11.1c-2.3,1.2-4.5,1.4-5.8-1.5c-0.1-0.6-0.1-1.2-0.8-1.5l0,0
		c-0.5-7-3.2-13.5-4.9-20.2c-9.9-37.4-19.8-74.9-30-112.3c-3.1-11.3-1.6-21.2,6.7-29.6C135.9,96.6,144.1,94.7,153.1,95.6z"/>
	<path class="st2" d="M157.6,265.3c0.7,0.3,0.7,0.9,0.8,1.5C157.8,266.6,157.6,266,157.6,265.3z"/>
</g>
</svg>
