<?xml version="1.0" encoding="utf-8"?>
<!-- Generator: Adobe Illustrator 25.3.1, SVG Export Plug-In . SVG Version: 6.00 Build 0)  -->
<svg version="1.1" id="Layer_1" xmlns="http://www.w3.org/2000/svg" xmlns:xlink="http://www.w3.org/1999/xlink" x="0px" y="0px"
	 viewBox="0 0 72 72" style="enable-background:new 0 0 72 72;" xml:space="preserve">
<style type="text/css">
	.st0{opacity:0.8;fill:url(#SVGID_1_);enable-background:new    ;}
	.st1{fill:url(#SVGID_2_);}
	.st2{fill:#FFFFFF;}
</style>
<g>
	<linearGradient id="SVGID_1_" gradientUnits="userSpaceOnUse" x1="-3.957120e-02" y1="71.8581" x2="71.8518" y2="0.2293">
		<stop  offset="0" style="stop-color:#F5F6F8;stop-opacity:0.5"/>
		<stop  offset="1" style="stop-color:#F5F6F8"/>
	</linearGradient>
	<path class="st0" d="M36,0.5L36,0.5c19.6,0,35.5,15.9,35.5,35.5l0,0c0,19.6-15.9,35.5-35.5,35.5l0,0C16.4,71.5,0.5,55.6,0.5,36l0,0
		C0.5,16.4,16.4,0.5,36,0.5z"/>
	
		<linearGradient id="SVGID_2_" gradientUnits="userSpaceOnUse" x1="-9.625663e-03" y1="0.261" x2="71.7333" y2="71.5638" gradientTransform="matrix(1 0 0 -1 0 72)">
		<stop  offset="0" style="stop-color:#FFFFFF;stop-opacity:0"/>
		<stop  offset="1" style="stop-color:#FFFFFF"/>
	</linearGradient>
	<path class="st1" d="M39.9,71.8C17,74.2-2.2,55,0.2,32.1C2,15.4,15.4,2,32,0.2C55-2.2,74.2,17,71.8,39.9C70,56.6,56.5,70,39.9,71.8
		z M39.8,1.2C17.5-1.2-1.2,17.5,1.2,39.8c1.7,16.2,14.8,29.3,31,31c22.3,2.4,41-16.3,38.6-38.6C69.1,16,56,2.9,39.8,1.2z"/>
</g>
<g>
	<path class="st2" d="M25,37.3v-2.4h17.2l-4.3-4.4l1.7-1.7l7.3,7.3l-7.3,7.3l-1.7-1.7l4.3-4.4C42.2,37.3,25,37.3,25,37.3z"/>
</g>
</svg>
